<svg xmlns="http://www.w3.org/2000/svg" width="36" height="30" viewBox="0 0 36 30">
  <defs>
    <style>
      .cls-1 {
        fill: #a7a7a7;
        fill-rule: evenodd;
      }
    </style>
  </defs>
  <path id="icon-twitter.svg" class="cls-1" d="M1592.01,270.555a14.633,14.633,0,0,1-4.7,1.839,7.254,7.254,0,0,0-5.38-2.394,7.613,7.613,0,0,0-7.2,9.3,20.782,20.782,0,0,1-15.22-7.915,7.716,7.716,0,0,0,2.28,10.112,7.227,7.227,0,0,1-3.34-.95v0.094a7.543,7.543,0,0,0,5.92,7.429,7.327,7.327,0,0,1-1.94.266,7.2,7.2,0,0,1-1.39-.138,7.414,7.414,0,0,0,6.89,5.262,14.565,14.565,0,0,1-9.17,3.241,15.369,15.369,0,0,1-1.76-.1,20.546,20.546,0,0,0,11.32,3.4c13.59,0,21.01-11.544,21.01-21.554l-0.02-.981a15.072,15.072,0,0,0,3.69-3.916,14.537,14.537,0,0,1-4.24,1.194A7.6,7.6,0,0,0,1592.01,270.555Z" transform="translate(-1557 -270)"/>
</svg>
