<svg xmlns="http://www.w3.org/2000/svg" width="30" height="30" viewBox="0 0 30 30">
  <defs>
    <style>
      .cls-1 {
        fill: #a7a7a7;
        fill-rule: evenodd;
      }
    </style>
  </defs>
  <path id="icon-dribbble.svg" class="cls-1" d="M1303,270a15,15,0,1,0,15,15A15.017,15.017,0,0,0,1303,270Zm9.87,7.08a12.625,12.625,0,0,1,2.8,7.725,31.452,31.452,0,0,0-5.86-.567,23.914,23.914,0,0,0-2.89.168c-0.09-.2-0.17-0.4-0.25-0.6-0.26-.6-0.53-1.193-0.82-1.778A17.208,17.208,0,0,0,1312.87,277.081Zm-9.87-4.733a12.608,12.608,0,0,1,8.35,3.149,14.456,14.456,0,0,1-6.55,4.5,66.384,66.384,0,0,0-4.66-7.32A12.685,12.685,0,0,1,1303,272.348Zm-5.44,1.231a84.232,84.232,0,0,1,4.63,7.229,47.869,47.869,0,0,1-11.45,1.527h-0.12A12.7,12.7,0,0,1,1297.56,273.579Zm-7.23,11.441v-0.313c0.08,0,.19,0,0.34,0a47.328,47.328,0,0,0,12.65-1.8c0.34,0.669.67,1.348,0.97,2.026-0.14.04-.28,0.081-0.42,0.127a20.26,20.26,0,0,0-10.35,8.356A12.587,12.587,0,0,1,1290.33,285.02ZM1303,297.692a12.607,12.607,0,0,1-7.73-2.638c0.36-.711,2.99-5.448,9.93-7.867a0.146,0.146,0,0,0,.02,0,53.61,53.61,0,0,1,2.68,9.525A12.645,12.645,0,0,1,1303,297.692Zm7.18-2.234a56.286,56.286,0,0,0-2.43-8.9,16.61,16.61,0,0,1,2.55-.192,18.782,18.782,0,0,1,5.2.728A12.7,12.7,0,0,1,1310.18,295.458Z" transform="translate(-1288 -270)"/>
</svg>
