<svg xmlns="http://www.w3.org/2000/svg" width="30" height="30" viewBox="0 0 30 30">
  <defs>
    <style>
      .cls-1 {
        fill: #a7a7a7;
        fill-rule: evenodd;
      }
    </style>
  </defs>
  <path id="icon-linkedin.svg" class="cls-1" d="M1408,288.393V300h-6.56v-11.25c0-2.721-.8-4.157-3.13-4.157-4.11,0-3.43,5.252-3.43,4.157V300h-6.51s0.03-18.725-.06-20.625h6.57l-0.08,3.251c-0.01.022-.03,0.045-0.04,0.066h0.04v-0.066a6.344,6.344,0,0,1,5.8-3.344C1404.83,279.283,1408,282.176,1408,288.393ZM1381.64,270a3.5,3.5,0,1,0-.09,7h0.05A3.5,3.5,0,1,0,1381.64,270ZM1378,300h7.5V279.376H1378V300Z" transform="translate(-1378 -270)"/>
</svg>
