<svg xmlns="http://www.w3.org/2000/svg" width="30" height="30" viewBox="0 0 30 30">
  <defs>
    <style>
      .cls-1 {
        fill: #a7a7a7;
        fill-rule: evenodd;
      }
    </style>
  </defs>
  <path id="icon-instagram.svg" class="cls-1" d="M1494,270h-22a3.949,3.949,0,0,0-4,4v22a3.95,3.95,0,0,0,4,4h22a3.95,3.95,0,0,0,4-4V273.75A3.747,3.747,0,0,0,1494,270Zm-22.25,1.875h22.5a2.127,2.127,0,0,1,1.88,1.875v6.563h-7.5c-1.58-1.549-3.22-2.813-5.63-2.813s-4.05,1.264-5.62,2.813h-7.5V273.75A2.127,2.127,0,0,1,1471.75,271.875Zm17.5,14.376A6.25,6.25,0,1,1,1483,280,6.189,6.189,0,0,1,1489.25,286.251Zm-2.5,0a3.75,3.75,0,0,1-7.5,0c0-.375.13-0.751,0.13-1.126a2.113,2.113,0,0,0,1.75,1.126,1.919,1.919,0,0,0,1.87-1.875,1.963,1.963,0,0,0-1.12-1.75c0.37,0,.75-0.125,1.12-0.125A3.679,3.679,0,0,1,1486.75,286.251Zm2.81-12.5h4.69v4.688h-4.69V273.75Z" transform="translate(-1468 -270)"/>
</svg>
