<svg xmlns="http://www.w3.org/2000/svg" width="817.719" height="49.656" viewBox="0 0 817.719 49.656">
  <defs>
    <style>
      .cls-1 {
        fill: #333;
        fill-rule: evenodd;
      }
    </style>
  </defs>
  <path id="logo.svg" class="cls-1" d="M24.838,49.827c10.081,0,15.985-5.04,19.658-10.8l-7.2-3.672a14.259,14.259,0,0,1-12.457,6.984c-9.145,0-16.2-7.272-16.2-17.351s7.057-17.351,16.2-17.351A14.411,14.411,0,0,1,37.3,14.62l7.2-3.672c-3.6-5.76-9.577-10.8-19.658-10.8C11.013,0.149,0,10.228,0,24.988S11.013,49.827,24.838,49.827Zm45.87-24.839c0,14.327,10.153,24.839,24.554,24.839s24.554-10.512,24.554-24.839S109.663,0.149,95.262.149,70.708,10.66,70.708,24.988Zm40.467,0c0,9.864-6.264,17.351-15.913,17.351-9.721,0-15.913-7.488-15.913-17.351,0-9.936,6.192-17.351,15.913-17.351C104.911,7.636,111.175,15.052,111.175,24.988Zm71.864,23.975h8.137V0.941h-8.425V35L158.2,0.941h-8.64V48.963h8.424V13.972ZM219.908,42.2c4.248,4.536,10.657,7.632,19.514,7.632C252.382,49.827,258,42.987,258,35c0-10.44-9.433-12.887-17.353-14.9-5.689-1.44-10.585-2.664-10.585-6.408,0-3.6,3.168-5.976,8.136-5.976a19.524,19.524,0,0,1,13.9,5.472l4.825-6.264c-4.464-4.32-10.513-6.7-18-6.7-10.512,0-17.5,6.12-17.5,14.039,0,10.152,9.217,12.455,17.065,14.4,5.833,1.512,10.945,2.808,10.945,7.128,0,3.168-2.736,6.552-9.648,6.552a20.72,20.72,0,0,1-15.194-6.624Zm78.2,6.768h8.425V8.356h14.545V0.941H283.563V8.356h14.545V48.963Zm51.7,0h32.906V41.547H358.235V28.228h23.978V20.812H358.235V8.356h24.482V0.941H349.811V48.963Zm63.15,0h29.595V41.547h-21.17V0.941h-8.425V48.963Zm58.831,0h29.594V41.547H480.217V0.941h-8.425V48.963Zm92.817,0h9.217L554.961,0.941H544.448L525.582,48.963H534.8l3.528-9.216h22.754ZM549.7,8.068l9,24.263h-18Zm57.751,40.894h8.425V8.356h14.545V0.941H592.91V8.356h14.545V48.963Zm51.7,0h8.425V0.941h-8.425V48.963Zm38.092-23.975c0,14.327,10.153,24.839,24.554,24.839s24.554-10.512,24.554-24.839S736.2,0.149,721.8.149,697.249,10.66,697.249,24.988Zm40.467,0c0,9.864-6.265,17.351-15.913,17.351-9.721,0-15.914-7.488-15.914-17.351,0-9.936,6.193-17.351,15.914-17.351C731.451,7.636,737.716,15.052,737.716,24.988ZM809.58,48.963h8.137V0.941h-8.425V35L784.738,0.941H776.1V48.963h8.424V13.972Z" transform="translate(0 -0.156)"/>
</svg>
