<svg xmlns="http://www.w3.org/2000/svg" width="17" height="17" viewBox="0 0 17 17">
  <defs>
    <style>
      .cls-1 {
        fill: #222;
        fill-rule: evenodd;
      }
    </style>
  </defs>
  <path id="icon-basket.svg" class="cls-1" d="M1188.13,113.1h14.74L1204,126h-17Zm4.54,0v1.758c0,0.971-.35,1.759-1.14,1.759s-1.13-.788-1.13-1.759V113.1m10.2,0v1.758c0,0.971-.35,1.759-1.13,1.759s-1.14-.788-1.14-1.759V113.1m-7.36,1.172c0-2.91,1.68-5.276,4.53-5.276s4.53,2.9,4.53,5.276c0,1.144-1.13,1.144-1.13,0,0-1.783-1.14-4.1-3.4-4.1-2.28,0-3.4,2.316-3.4,4.1C1192.1,115.439,1190.97,115.457,1190.97,114.276Z" transform="translate(-1187 -109)"/>
</svg>
