<svg id="icon-search.svg" xmlns="http://www.w3.org/2000/svg" width="43" height="43" viewBox="0 0 43 43">
  <defs>
    <style>
      .cls-1 {
        fill: none;
        stroke: #959595;
        stroke-width: 1px;
      }

      .cls-2 {
        fill: #303030;
        fill-rule: evenodd;
      }
    </style>
  </defs>
  <rect class="cls-1" x="0.5" y="0.5" width="42" height="42"/>
  <path id="icon-search" class="cls-2" d="M1340.52,112.519a5.252,5.252,0,0,1,7.36-.026,5.08,5.08,0,0,1,.35,6.915l-0.02.019a4.056,4.056,0,0,1-.77.74,5.259,5.259,0,0,1-6.9-.383A5.086,5.086,0,0,1,1340.52,112.519Zm0.94,6.353a3.938,3.938,0,0,0,5.52-.018,3.818,3.818,0,0,0-.02-5.45,3.941,3.941,0,0,0-5.52.02A3.807,3.807,0,0,0,1341.46,118.872ZM1355,125.6l-1.31,1.4-5.68-6.068,0.95-.936Z" transform="translate(-1325.5 -96.5)"/>
</svg>
