<svg xmlns="http://www.w3.org/2000/svg" width="11" height="17" viewBox="0 0 11 17">
  <defs>
    <style>
      .cls-1 {
        fill: #222;
        fill-rule: evenodd;
      }
    </style>
  </defs>
  <path id="icon-user.svg" class="cls-1" d="M1085.53,117.65a4.334,4.334,0,1,0-4.06-4.326A4.2,4.2,0,0,0,1085.53,117.65Zm-3.06-4.733h6.11c0.01,0.137.04,0.269,0.04,0.407a3.1,3.1,0,1,1-6.18,0C1082.44,113.186,1082.46,113.054,1082.47,112.917Zm4.87,4.671a1.883,1.883,0,0,1-3.68,0,5.6,5.6,0,0,0-3.66,5.288V126h11v-3.125A5.6,5.6,0,0,0,1087.34,117.588Z" transform="translate(-1080 -109)"/>
</svg>
