<svg xmlns="http://www.w3.org/2000/svg" width="8.719" height="18" viewBox="0 0 8.719 18">
  <defs>
    <style>
      .cls-1 {
        fill: #fff;
        fill-rule: evenodd;
      }
    </style>
  </defs>
  <path id="icon-arrow-up.svg" class="cls-1" d="M164.53,605.628a0.548,0.548,0,0,0,0-.769l-3.807-3.847-0.173-.116-0.2-.04-0.007,0h-0.006l-0.2.042-0.175.118-3.805,3.845a0.548,0.548,0,0,0,0,.769,0.536,0.536,0,0,0,.761,0l2.887-2.917v15.6a0.538,0.538,0,1,0,1.076,0v-15.6l2.887,2.917A0.535,0.535,0,0,0,164.53,605.628Zm0,0a0.548,0.548,0,0,0,0-.769l-3.807-3.847-0.173-.116-0.2-.04-0.007,0h-0.006l-0.2.042-0.175.118-3.805,3.845a0.548,0.548,0,0,0,0,.769,0.536,0.536,0,0,0,.761,0l2.887-2.917v15.6a0.538,0.538,0,1,0,1.076,0v-15.6l2.887,2.917A0.535,0.535,0,0,0,164.53,605.628Z" transform="translate(-156 -600.844)"/>
</svg>
