<svg xmlns="http://www.w3.org/2000/svg" width="27" height="12.969" viewBox="0 0 27 12.969">
  <defs>
    <style>
      .cls-1 {
        fill: #fff;
        fill-rule: evenodd;
      }
    </style>
  </defs>
  <path id="icon-arrow-left.svg" class="cls-1" d="M1214.16,820.236a0.832,0.832,0,0,0-1.16,0l-5.76,5.7-0.18.259-0.06.3v0.02l0.06,0.3,0.18,0.262,5.76,5.694a0.833,0.833,0,0,0,1.16,0,0.8,0.8,0,0,0,0-1.139l-4.38-4.32h23.4a0.805,0.805,0,1,0,0-1.61h-23.4l4.38-4.32A0.8,0.8,0,0,0,1214.16,820.236Zm0,0a0.832,0.832,0,0,0-1.16,0l-5.76,5.7-0.18.259-0.06.3v0.02l0.06,0.3,0.18,0.262,5.76,5.694a0.833,0.833,0,0,0,1.16,0,0.8,0.8,0,0,0,0-1.139l-4.38-4.32h23.4a0.805,0.805,0,1,0,0-1.61h-23.4l4.38-4.32A0.8,0.8,0,0,0,1214.16,820.236Z" transform="translate(-1207 -820.031)"/>
</svg>
